<mxfile host="app.diagrams.net" modified="2021-03-30T09:13:08.323Z" agent="5.0 (X11; Linux x86_64) AppleWebKit/537.36 (KHTML, like Gecko) Chrome/89.0.4389.90 Safari/537.36" etag="rJL_u1mUP-jDMAiTLDH-" version="14.5.3" type="github">
  <diagram id="C5RBs43oDa-KdzZeNtuy" name="Page-1">
    <mxGraphModel dx="1873" dy="1763" grid="1" gridSize="10" guides="1" tooltips="1" connect="1" arrows="1" fold="1" page="1" pageScale="1" pageWidth="827" pageHeight="1169" math="0" shadow="0">
      <root>
        <mxCell id="WIyWlLk6GJQsqaUBKTNV-0" />
        <mxCell id="WIyWlLk6GJQsqaUBKTNV-1" parent="WIyWlLk6GJQsqaUBKTNV-0" />
        <mxCell id="WIyWlLk6GJQsqaUBKTNV-2" value="" style="rounded=0;html=1;jettySize=auto;orthogonalLoop=1;fontSize=11;endArrow=block;endFill=0;endSize=8;strokeWidth=1;shadow=0;labelBackgroundColor=none;edgeStyle=orthogonalEdgeStyle;" parent="WIyWlLk6GJQsqaUBKTNV-1" source="WIyWlLk6GJQsqaUBKTNV-3" target="WIyWlLk6GJQsqaUBKTNV-6" edge="1">
          <mxGeometry relative="1" as="geometry" />
        </mxCell>
        <mxCell id="WIyWlLk6GJQsqaUBKTNV-3" value="پیش شرایط" style="rounded=1;whiteSpace=wrap;html=1;fontSize=12;glass=0;strokeWidth=1;shadow=0;" parent="WIyWlLk6GJQsqaUBKTNV-1" vertex="1">
          <mxGeometry x="160" y="80" width="120" height="40" as="geometry" />
        </mxCell>
        <mxCell id="eY8-IsXeW_9uEEIaDJTf-11" value="بلی" style="edgeStyle=orthogonalEdgeStyle;rounded=0;sketch=0;orthogonalLoop=1;jettySize=auto;html=1;entryX=0.5;entryY=0;entryDx=0;entryDy=0;shadow=0;fontSize=15;align=left;" edge="1" parent="WIyWlLk6GJQsqaUBKTNV-1" source="WIyWlLk6GJQsqaUBKTNV-6" target="WIyWlLk6GJQsqaUBKTNV-10">
          <mxGeometry relative="1" as="geometry" />
        </mxCell>
        <mxCell id="eY8-IsXeW_9uEEIaDJTf-41" value="خیر" style="edgeStyle=orthogonalEdgeStyle;rounded=0;sketch=0;orthogonalLoop=1;jettySize=auto;html=1;entryX=1;entryY=0.5;entryDx=0;entryDy=0;shadow=0;fontSize=14;align=left;" edge="1" parent="WIyWlLk6GJQsqaUBKTNV-1" source="WIyWlLk6GJQsqaUBKTNV-6" target="eY8-IsXeW_9uEEIaDJTf-40">
          <mxGeometry relative="1" as="geometry" />
        </mxCell>
        <mxCell id="WIyWlLk6GJQsqaUBKTNV-6" value="گواهینامه دارای شناسه بانک مرکزی است؟" style="rhombus;whiteSpace=wrap;html=1;shadow=0;fontFamily=Helvetica;fontSize=12;align=center;strokeWidth=1;spacing=6;spacingTop=-4;" parent="WIyWlLk6GJQsqaUBKTNV-1" vertex="1">
          <mxGeometry x="170" y="170" width="120" height="100" as="geometry" />
        </mxCell>
        <mxCell id="eY8-IsXeW_9uEEIaDJTf-13" value="خیر" style="edgeStyle=orthogonalEdgeStyle;rounded=0;sketch=0;orthogonalLoop=1;jettySize=auto;html=1;shadow=0;fontSize=15;align=left;" edge="1" parent="WIyWlLk6GJQsqaUBKTNV-1" source="WIyWlLk6GJQsqaUBKTNV-10" target="eY8-IsXeW_9uEEIaDJTf-12">
          <mxGeometry relative="1" as="geometry" />
        </mxCell>
        <mxCell id="eY8-IsXeW_9uEEIaDJTf-14" value="بلی" style="edgeStyle=orthogonalEdgeStyle;rounded=0;sketch=0;orthogonalLoop=1;jettySize=auto;html=1;entryX=0.5;entryY=0;entryDx=0;entryDy=0;shadow=0;fontSize=15;align=left;" edge="1" parent="WIyWlLk6GJQsqaUBKTNV-1" source="WIyWlLk6GJQsqaUBKTNV-10" target="eY8-IsXeW_9uEEIaDJTf-6">
          <mxGeometry relative="1" as="geometry" />
        </mxCell>
        <mxCell id="WIyWlLk6GJQsqaUBKTNV-10" value="گواهینامه کانورتی است؟" style="rhombus;whiteSpace=wrap;html=1;shadow=0;fontFamily=Helvetica;fontSize=12;align=center;strokeWidth=1;spacing=6;spacingTop=-4;" parent="WIyWlLk6GJQsqaUBKTNV-1" vertex="1">
          <mxGeometry x="170" y="330" width="100" height="80" as="geometry" />
        </mxCell>
        <mxCell id="eY8-IsXeW_9uEEIaDJTf-8" value="خیر" style="edgeStyle=orthogonalEdgeStyle;rounded=0;sketch=0;orthogonalLoop=1;jettySize=auto;html=1;shadow=0;fontSize=15;align=center;entryX=1;entryY=0.5;entryDx=0;entryDy=0;" edge="1" parent="WIyWlLk6GJQsqaUBKTNV-1" source="eY8-IsXeW_9uEEIaDJTf-6" target="eY8-IsXeW_9uEEIaDJTf-9">
          <mxGeometry relative="1" as="geometry">
            <mxPoint x="100" y="630" as="targetPoint" />
          </mxGeometry>
        </mxCell>
        <mxCell id="eY8-IsXeW_9uEEIaDJTf-16" value="بلی" style="edgeStyle=orthogonalEdgeStyle;rounded=0;sketch=0;orthogonalLoop=1;jettySize=auto;html=1;shadow=0;fontSize=15;align=left;" edge="1" parent="WIyWlLk6GJQsqaUBKTNV-1" source="eY8-IsXeW_9uEEIaDJTf-6" target="eY8-IsXeW_9uEEIaDJTf-15">
          <mxGeometry relative="1" as="geometry" />
        </mxCell>
        <mxCell id="eY8-IsXeW_9uEEIaDJTf-6" value="گواهینامه دارای رفع سوءاثر است؟" style="rhombus;whiteSpace=wrap;html=1;shadow=0;fontFamily=Helvetica;fontSize=12;align=center;strokeWidth=1;spacing=6;spacingTop=-4;" vertex="1" parent="WIyWlLk6GJQsqaUBKTNV-1">
          <mxGeometry x="175" y="590" width="100" height="80" as="geometry" />
        </mxCell>
        <mxCell id="eY8-IsXeW_9uEEIaDJTf-9" value="اصلاح وضعیت ها برای&lt;br&gt;&amp;nbsp;کد تامین ۳ شناسه دارد" style="rounded=1;whiteSpace=wrap;html=1;fontSize=12;glass=0;strokeWidth=1;shadow=0;" vertex="1" parent="WIyWlLk6GJQsqaUBKTNV-1">
          <mxGeometry x="-90" y="660" width="150" height="60" as="geometry" />
        </mxCell>
        <mxCell id="eY8-IsXeW_9uEEIaDJTf-30" value="بلی" style="edgeStyle=orthogonalEdgeStyle;rounded=0;sketch=0;orthogonalLoop=1;jettySize=auto;html=1;entryX=1;entryY=0.5;entryDx=0;entryDy=0;shadow=0;fontSize=15;align=left;" edge="1" parent="WIyWlLk6GJQsqaUBKTNV-1" source="eY8-IsXeW_9uEEIaDJTf-12" target="eY8-IsXeW_9uEEIaDJTf-29">
          <mxGeometry relative="1" as="geometry" />
        </mxCell>
        <mxCell id="eY8-IsXeW_9uEEIaDJTf-32" value="خیر" style="edgeStyle=orthogonalEdgeStyle;rounded=0;sketch=0;orthogonalLoop=1;jettySize=auto;html=1;shadow=0;fontSize=15;align=left;" edge="1" parent="WIyWlLk6GJQsqaUBKTNV-1" source="eY8-IsXeW_9uEEIaDJTf-12" target="eY8-IsXeW_9uEEIaDJTf-31">
          <mxGeometry relative="1" as="geometry" />
        </mxCell>
        <mxCell id="eY8-IsXeW_9uEEIaDJTf-12" value="وضعیت ارسال گواهینامه &lt;font color=&quot;#ff3333&quot; style=&quot;font-size: 14px;&quot;&gt;تایید بانک مرکزی&lt;/font&gt; است؟" style="rhombus;whiteSpace=wrap;html=1;shadow=0;fontFamily=Helvetica;fontSize=14;align=center;strokeWidth=1;spacing=6;spacingTop=-4;" vertex="1" parent="WIyWlLk6GJQsqaUBKTNV-1">
          <mxGeometry x="-100" y="310" width="170" height="110" as="geometry" />
        </mxCell>
        <mxCell id="eY8-IsXeW_9uEEIaDJTf-25" style="edgeStyle=orthogonalEdgeStyle;rounded=0;sketch=0;orthogonalLoop=1;jettySize=auto;html=1;entryX=1;entryY=0.5;entryDx=0;entryDy=0;shadow=0;fontSize=15;align=left;" edge="1" parent="WIyWlLk6GJQsqaUBKTNV-1" source="eY8-IsXeW_9uEEIaDJTf-15" target="eY8-IsXeW_9uEEIaDJTf-24">
          <mxGeometry relative="1" as="geometry" />
        </mxCell>
        <mxCell id="eY8-IsXeW_9uEEIaDJTf-26" value="خیر" style="edgeLabel;html=1;align=center;verticalAlign=middle;resizable=0;points=[];fontSize=15;" vertex="1" connectable="0" parent="eY8-IsXeW_9uEEIaDJTf-25">
          <mxGeometry x="-0.2174" y="2" relative="1" as="geometry">
            <mxPoint as="offset" />
          </mxGeometry>
        </mxCell>
        <mxCell id="eY8-IsXeW_9uEEIaDJTf-28" value="بلی" style="edgeStyle=orthogonalEdgeStyle;rounded=0;sketch=0;orthogonalLoop=1;jettySize=auto;html=1;shadow=0;fontSize=15;align=left;" edge="1" parent="WIyWlLk6GJQsqaUBKTNV-1" source="eY8-IsXeW_9uEEIaDJTf-15" target="eY8-IsXeW_9uEEIaDJTf-27">
          <mxGeometry relative="1" as="geometry" />
        </mxCell>
        <mxCell id="eY8-IsXeW_9uEEIaDJTf-15" value="رفع سواثر کانورتی است؟" style="rhombus;whiteSpace=wrap;html=1;shadow=0;fontFamily=Helvetica;fontSize=12;align=center;strokeWidth=1;spacing=6;spacingTop=-4;" vertex="1" parent="WIyWlLk6GJQsqaUBKTNV-1">
          <mxGeometry x="175" y="750" width="100" height="80" as="geometry" />
        </mxCell>
        <mxCell id="eY8-IsXeW_9uEEIaDJTf-23" value="&lt;h1 style=&quot;text-align: right&quot;&gt;کد تامین در گواهینامه های کانورتی&lt;/h1&gt;&lt;div style=&quot;text-align: right&quot;&gt;&lt;br&gt;&lt;/div&gt;&lt;p&gt;&lt;/p&gt;&lt;div style=&quot;text-align: right&quot;&gt;&lt;span&gt;کد تامین ۱&lt;/span&gt;&lt;br&gt;&lt;span&gt;کد تامین ۲&lt;/span&gt;&lt;br&gt;&lt;span&gt;کد تامین ۳ - گواهینامه کانورتی رفع سواثر ندارد&lt;/span&gt;&lt;br&gt;&lt;span&gt;کد تامین ۴&lt;/span&gt;&lt;br&gt;&lt;span&gt;کد تامین ۵&lt;/span&gt;&lt;br&gt;&lt;/div&gt;&lt;p&gt;&lt;/p&gt;" style="text;html=1;strokeColor=none;fillColor=none;spacing=5;spacingTop=-20;whiteSpace=wrap;overflow=hidden;rounded=0;fontSize=15;" vertex="1" parent="WIyWlLk6GJQsqaUBKTNV-1">
          <mxGeometry x="360" y="480" width="460" height="290" as="geometry" />
        </mxCell>
        <mxCell id="eY8-IsXeW_9uEEIaDJTf-24" value="" style="rounded=1;whiteSpace=wrap;html=1;fontSize=12;glass=0;strokeWidth=1;shadow=0;" vertex="1" parent="WIyWlLk6GJQsqaUBKTNV-1">
          <mxGeometry x="-60" y="770" width="120" height="40" as="geometry" />
        </mxCell>
        <mxCell id="eY8-IsXeW_9uEEIaDJTf-27" value="حالت های کد تامین ۱و۲و۴و۵&lt;br&gt;شناسه دارد" style="rounded=1;whiteSpace=wrap;html=1;fontSize=14;glass=0;strokeWidth=1;shadow=0;" vertex="1" parent="WIyWlLk6GJQsqaUBKTNV-1">
          <mxGeometry x="150" y="900" width="135" height="80" as="geometry" />
        </mxCell>
        <mxCell id="eY8-IsXeW_9uEEIaDJTf-29" value="پیام خطا بدهد" style="rounded=1;whiteSpace=wrap;html=1;fontSize=15;" vertex="1" parent="WIyWlLk6GJQsqaUBKTNV-1">
          <mxGeometry x="-330" y="330" width="120" height="60" as="geometry" />
        </mxCell>
        <mxCell id="eY8-IsXeW_9uEEIaDJTf-36" value="خیر" style="edgeStyle=orthogonalEdgeStyle;rounded=0;sketch=0;orthogonalLoop=1;jettySize=auto;html=1;entryX=1;entryY=0.5;entryDx=0;entryDy=0;shadow=0;fontSize=14;align=left;" edge="1" parent="WIyWlLk6GJQsqaUBKTNV-1" source="eY8-IsXeW_9uEEIaDJTf-31" target="eY8-IsXeW_9uEEIaDJTf-33">
          <mxGeometry relative="1" as="geometry" />
        </mxCell>
        <mxCell id="eY8-IsXeW_9uEEIaDJTf-31" value="وضعیت ارسال گواهینامه تایید بانک مرکزی است؟" style="rhombus;whiteSpace=wrap;html=1;shadow=0;fontFamily=Helvetica;fontSize=12;align=center;strokeWidth=1;spacing=6;spacingTop=-4;" vertex="1" parent="WIyWlLk6GJQsqaUBKTNV-1">
          <mxGeometry x="-90" y="470" width="130" height="100" as="geometry" />
        </mxCell>
        <mxCell id="eY8-IsXeW_9uEEIaDJTf-35" value="بلی" style="edgeStyle=orthogonalEdgeStyle;rounded=0;sketch=0;orthogonalLoop=1;jettySize=auto;html=1;shadow=0;fontSize=14;align=left;" edge="1" parent="WIyWlLk6GJQsqaUBKTNV-1" source="eY8-IsXeW_9uEEIaDJTf-33" target="eY8-IsXeW_9uEEIaDJTf-34">
          <mxGeometry relative="1" as="geometry" />
        </mxCell>
        <mxCell id="eY8-IsXeW_9uEEIaDJTf-38" value="خیر" style="edgeStyle=orthogonalEdgeStyle;rounded=0;sketch=0;orthogonalLoop=1;jettySize=auto;html=1;shadow=0;fontSize=14;align=left;entryX=1;entryY=0.5;entryDx=0;entryDy=0;" edge="1" parent="WIyWlLk6GJQsqaUBKTNV-1" source="eY8-IsXeW_9uEEIaDJTf-33" target="eY8-IsXeW_9uEEIaDJTf-39">
          <mxGeometry relative="1" as="geometry">
            <mxPoint x="-395" y="600" as="targetPoint" />
          </mxGeometry>
        </mxCell>
        <mxCell id="eY8-IsXeW_9uEEIaDJTf-33" value="گواهینامه دارای رفع سواثر &lt;font color=&quot;#ff3333&quot;&gt;صادر شده&lt;/font&gt; که وضعیت آن &lt;font color=&quot;#ff3333&quot;&gt;نیاز به ارسال ندارد&lt;/font&gt; می باشد؟" style="rhombus;whiteSpace=wrap;html=1;shadow=0;fontFamily=Helvetica;fontSize=12;align=center;strokeWidth=1;spacing=6;spacingTop=-4;" vertex="1" parent="WIyWlLk6GJQsqaUBKTNV-1">
          <mxGeometry x="-280" y="550" width="190" height="100" as="geometry" />
        </mxCell>
        <mxCell id="eY8-IsXeW_9uEEIaDJTf-34" value="وضعیت ارسال رفع سو اثر &lt;font color=&quot;#ff3333&quot;&gt;آماده جهت ارسال&lt;/font&gt;&lt;br&gt;فیلد رفع سواثر گواهینامه را &lt;font color=&quot;#ff3333&quot;&gt;شده&lt;/font&gt; کن" style="rounded=1;whiteSpace=wrap;html=1;fontSize=14;" vertex="1" parent="WIyWlLk6GJQsqaUBKTNV-1">
          <mxGeometry x="-440" y="730" width="230" height="60" as="geometry" />
        </mxCell>
        <mxCell id="eY8-IsXeW_9uEEIaDJTf-39" value="هیچ کاری نمی کند" style="rounded=1;whiteSpace=wrap;html=1;fontSize=14;" vertex="1" parent="WIyWlLk6GJQsqaUBKTNV-1">
          <mxGeometry x="-520" y="570" width="120" height="60" as="geometry" />
        </mxCell>
        <mxCell id="eY8-IsXeW_9uEEIaDJTf-43" value="" style="edgeStyle=orthogonalEdgeStyle;rounded=0;sketch=0;orthogonalLoop=1;jettySize=auto;html=1;shadow=0;fontSize=14;align=left;" edge="1" parent="WIyWlLk6GJQsqaUBKTNV-1" source="eY8-IsXeW_9uEEIaDJTf-40" target="eY8-IsXeW_9uEEIaDJTf-42">
          <mxGeometry relative="1" as="geometry" />
        </mxCell>
        <mxCell id="eY8-IsXeW_9uEEIaDJTf-40" value="استعلام گواهینامه از بانک مرکزی" style="rounded=1;whiteSpace=wrap;html=1;fontSize=14;" vertex="1" parent="WIyWlLk6GJQsqaUBKTNV-1">
          <mxGeometry x="-60" y="190" width="120" height="60" as="geometry" />
        </mxCell>
        <mxCell id="eY8-IsXeW_9uEEIaDJTf-45" value="خیر" style="edgeStyle=orthogonalEdgeStyle;rounded=0;sketch=0;orthogonalLoop=1;jettySize=auto;html=1;shadow=0;fontSize=14;align=left;entryX=0.5;entryY=1;entryDx=0;entryDy=0;" edge="1" parent="WIyWlLk6GJQsqaUBKTNV-1" source="eY8-IsXeW_9uEEIaDJTf-42" target="eY8-IsXeW_9uEEIaDJTf-46">
          <mxGeometry relative="1" as="geometry">
            <mxPoint x="-220" y="70" as="targetPoint" />
          </mxGeometry>
        </mxCell>
        <mxCell id="eY8-IsXeW_9uEEIaDJTf-42" value="گواهینامه نزد بانک وجود دارد؟" style="rhombus;whiteSpace=wrap;html=1;rounded=1;fontSize=14;" vertex="1" parent="WIyWlLk6GJQsqaUBKTNV-1">
          <mxGeometry x="-280" y="150" width="120" height="110" as="geometry" />
        </mxCell>
        <mxCell id="eY8-IsXeW_9uEEIaDJTf-48" value="خیر" style="edgeStyle=orthogonalEdgeStyle;rounded=0;sketch=0;orthogonalLoop=1;jettySize=auto;html=1;shadow=0;fontSize=14;align=left;" edge="1" parent="WIyWlLk6GJQsqaUBKTNV-1" source="eY8-IsXeW_9uEEIaDJTf-46" target="eY8-IsXeW_9uEEIaDJTf-47">
          <mxGeometry relative="1" as="geometry" />
        </mxCell>
        <mxCell id="eY8-IsXeW_9uEEIaDJTf-50" value="" style="edgeStyle=orthogonalEdgeStyle;rounded=0;sketch=0;orthogonalLoop=1;jettySize=auto;html=1;shadow=0;fontSize=14;fontColor=#FF0000;align=left;" edge="1" parent="WIyWlLk6GJQsqaUBKTNV-1" source="eY8-IsXeW_9uEEIaDJTf-46" target="eY8-IsXeW_9uEEIaDJTf-49">
          <mxGeometry relative="1" as="geometry" />
        </mxCell>
        <mxCell id="eY8-IsXeW_9uEEIaDJTf-46" value="گواهینامه کانورتی است؟" style="rhombus;whiteSpace=wrap;html=1;fontSize=14;" vertex="1" parent="WIyWlLk6GJQsqaUBKTNV-1">
          <mxGeometry x="-260" y="-50" width="120" height="120" as="geometry" />
        </mxCell>
        <mxCell id="eY8-IsXeW_9uEEIaDJTf-47" value="پیام خطا بدهد&lt;br&gt;&lt;pre style=&quot;font-family: &amp;#34;dejavu sans mono&amp;#34; , monospace ; font-size: 9.8pt&quot;&gt;&lt;span style=&quot;background-color: rgb(255 , 255 , 255)&quot;&gt;اطلاعاتی برای این گواهینامه نزد بانک مرکزی یافت نشد&lt;span style=&quot;font-family: &amp;#34;jetbrains mono&amp;#34; , monospace&quot;&gt;.&lt;/span&gt;&lt;/span&gt;&lt;/pre&gt;" style="rounded=1;whiteSpace=wrap;html=1;fontSize=14;fontColor=#FF0000;" vertex="1" parent="WIyWlLk6GJQsqaUBKTNV-1">
          <mxGeometry x="-260" y="-140" width="120" height="60" as="geometry" />
        </mxCell>
        <mxCell id="eY8-IsXeW_9uEEIaDJTf-52" value="خیر" style="edgeStyle=orthogonalEdgeStyle;rounded=0;sketch=0;orthogonalLoop=1;jettySize=auto;html=1;entryX=1;entryY=0.5;entryDx=0;entryDy=0;shadow=0;fontSize=14;align=left;" edge="1" parent="WIyWlLk6GJQsqaUBKTNV-1" source="eY8-IsXeW_9uEEIaDJTf-49" target="eY8-IsXeW_9uEEIaDJTf-51">
          <mxGeometry relative="1" as="geometry" />
        </mxCell>
        <mxCell id="eY8-IsXeW_9uEEIaDJTf-54" value="بلی" style="edgeStyle=orthogonalEdgeStyle;rounded=0;sketch=0;orthogonalLoop=1;jettySize=auto;html=1;shadow=0;fontSize=14;fontColor=#000000;align=left;" edge="1" parent="WIyWlLk6GJQsqaUBKTNV-1" source="eY8-IsXeW_9uEEIaDJTf-49" target="eY8-IsXeW_9uEEIaDJTf-53">
          <mxGeometry relative="1" as="geometry" />
        </mxCell>
        <mxCell id="eY8-IsXeW_9uEEIaDJTf-49" value="گواهینامه رفع سوءاثر دارد؟" style="rhombus;whiteSpace=wrap;html=1;fontSize=14;" vertex="1" parent="WIyWlLk6GJQsqaUBKTNV-1">
          <mxGeometry x="-460" y="-50" width="120" height="120" as="geometry" />
        </mxCell>
        <mxCell id="eY8-IsXeW_9uEEIaDJTf-51" value="&lt;span style=&quot;color: rgb(0 , 0 , 0) ; font-size: 12px&quot;&gt;اصلاح وضعیت ها برای&lt;br&gt;&amp;nbsp;کد تامین ۳ شناسه ندارد&lt;/span&gt;" style="rounded=1;whiteSpace=wrap;html=1;fontSize=14;fontColor=#FF0000;" vertex="1" parent="WIyWlLk6GJQsqaUBKTNV-1">
          <mxGeometry x="-680" y="-20" width="130" height="60" as="geometry" />
        </mxCell>
        <mxCell id="eY8-IsXeW_9uEEIaDJTf-53" value="اصلاح وضعیت ها برای&lt;br&gt;کد تامین ۱و۲و۴و۵ شناسه ندارد" style="rounded=1;whiteSpace=wrap;html=1;fontSize=14;fontColor=#000000;" vertex="1" parent="WIyWlLk6GJQsqaUBKTNV-1">
          <mxGeometry x="-520" y="130" width="167" height="60" as="geometry" />
        </mxCell>
      </root>
    </mxGraphModel>
  </diagram>
</mxfile>
